<svg width="146" height="33" viewBox="0 0 146 33" fill="none" xmlns="http://www.w3.org/2000/svg">
<path d="M43.1854 21.8566C43.1854 22.5552 43.042 23.0919 42.7552 23.4669C42.4758 23.842 42.0089 24.0294 41.3545 24.0294C40.7368 24.0294 40.2994 23.842 40.042 23.4669C39.792 23.0919 39.667 22.5552 39.667 21.8566V10.1986C39.667 9.50002 39.792 8.96326 40.042 8.58826C40.2994 8.21326 40.7368 8.02576 41.3545 8.02576C42.0089 8.02576 42.4758 8.21326 42.7552 8.58826C43.042 8.96326 43.1854 9.50002 43.1854 10.1986V21.8566Z" fill="white"/>
<path d="M44.2534 18.4707C44.2534 17.6912 44.3784 16.9559 44.6285 16.2647C44.8858 15.5662 45.2681 14.9559 45.7755 14.4339C46.2902 13.9118 46.9299 13.4964 47.6946 13.1876C48.4667 12.8787 49.3711 12.7243 50.4079 12.7243C51.4005 12.7243 52.2792 12.8676 53.0439 13.1544C53.8086 13.4412 54.452 13.842 54.974 14.3567C55.4961 14.864 55.8931 15.4706 56.1652 16.1764C56.4372 16.875 56.5733 17.6397 56.5733 18.4707C56.5733 19.2427 56.4446 19.9743 56.1873 20.6655C55.9299 21.3492 55.5439 21.9523 55.0291 22.4743C54.5145 22.989 53.8711 23.4007 53.0991 23.7096C52.3269 24.0111 51.4299 24.1618 50.4079 24.1618C49.4005 24.1618 48.5108 24.0184 47.7387 23.7316C46.974 23.4375 46.3307 23.0368 45.8086 22.5294C45.2939 22.0148 44.9041 21.4118 44.6395 20.7206C44.3821 20.0221 44.2534 19.2721 44.2534 18.4707ZM47.9263 18.4707C47.9263 18.9559 47.9703 19.4192 48.0586 19.8603C48.1468 20.2941 48.2865 20.6765 48.4777 21.0074C48.6762 21.3382 48.9336 21.603 49.2497 21.8015C49.566 21.9926 49.952 22.0883 50.4079 22.0883C50.827 22.0883 51.1909 22.0001 51.4997 21.8235C51.816 21.6471 52.0733 21.4007 52.2719 21.0846C52.4777 20.7684 52.6321 20.3897 52.735 19.9486C52.838 19.5 52.8895 19.0074 52.8895 18.4707C52.8895 17.9853 52.8417 17.5257 52.7461 17.0919C52.6578 16.6508 52.5145 16.2647 52.3159 15.9338C52.1174 15.5956 51.8601 15.3309 51.5439 15.1397C51.2351 14.9412 50.8563 14.842 50.4079 14.842C49.9593 14.842 49.577 14.9375 49.2608 15.1287C48.9446 15.3199 48.6873 15.5809 48.4887 15.9118C48.2902 16.2427 48.1468 16.6287 48.0586 17.0699C47.9703 17.511 47.9263 17.978 47.9263 18.4707Z" fill="white"/>
<path d="M65.6265 21.9007C65.4279 22.2683 65.1853 22.5808 64.8985 22.8382C64.6192 23.0955 64.3066 23.3088 63.9611 23.4779C63.6228 23.6396 63.2589 23.761 62.8691 23.8419C62.4867 23.9154 62.0934 23.9522 61.689 23.9522C61.0125 23.9522 60.3949 23.8309 59.836 23.5882C59.2772 23.3455 58.7956 22.9963 58.3912 22.5404C57.9941 22.0772 57.6853 21.511 57.4647 20.8419C57.2441 20.1727 57.1338 19.408 57.1338 18.5478C57.1338 17.7389 57.2368 16.9816 57.4427 16.2757C57.6485 15.5698 57.9463 14.9559 58.336 14.4338C58.7331 13.9117 59.2184 13.5 59.792 13.1985C60.3654 12.8971 61.0199 12.7463 61.7552 12.7463C62.5934 12.7463 63.336 12.9081 63.9831 13.2315C64.6375 13.5551 65.2 14.0845 65.6706 14.8198V14.5331C65.6706 14.0037 65.814 13.6066 66.1008 13.3419C66.3949 13.0699 66.7993 12.9338 67.314 12.9338C67.6228 12.9338 67.8838 12.9852 68.0971 13.0882C68.3103 13.1838 68.4794 13.3308 68.6044 13.5294C68.7295 13.7206 68.8176 13.9595 68.8691 14.2463C68.928 14.5257 68.9573 14.8456 68.9573 15.2059V22.5956C68.9573 23.4926 68.8434 24.294 68.6155 24.9999C68.3949 25.7058 68.0493 26.3015 67.5787 26.7867C67.1081 27.272 66.5052 27.6396 65.7698 27.8897C65.0346 28.147 64.1596 28.2757 63.1449 28.2757C62.4317 28.2757 61.7993 28.2427 61.2478 28.1764C60.7037 28.1177 60.2331 28.0257 59.836 27.9007C59.439 27.761 59.1376 27.6066 58.9316 27.4375C58.7331 27.2683 58.6338 27.0477 58.6338 26.7757C58.6338 26.6213 58.6559 26.4743 58.7 26.3345C58.7441 26.1948 58.8103 26.0699 58.8985 25.9595C58.9941 25.8566 59.1154 25.7721 59.2625 25.7058C59.4169 25.6471 59.6044 25.6176 59.825 25.6176C60.0603 25.6176 60.2956 25.6323 60.5309 25.6618C60.7735 25.6911 61.0236 25.7206 61.2809 25.7499C61.5456 25.7867 61.8213 25.8198 62.1081 25.8492C62.4022 25.8786 62.7184 25.8934 63.0566 25.8934C63.461 25.8934 63.8213 25.8529 64.1376 25.7721C64.4537 25.6911 64.722 25.5478 64.9426 25.3419C65.1632 25.136 65.3324 24.8603 65.45 24.5147C65.5677 24.1764 65.6265 23.7426 65.6265 23.2132V21.9007ZM65.6265 18.4706C65.6265 17.9338 65.586 17.4448 65.5052 17.0037C65.4317 16.5625 65.3029 16.1875 65.1191 15.8786C64.9353 15.5625 64.689 15.3198 64.3802 15.1507C64.0713 14.9742 63.6853 14.886 63.2221 14.886C62.7662 14.886 62.3875 14.9779 62.0861 15.1617C61.792 15.3455 61.5567 15.5993 61.3802 15.9227C61.2037 16.2463 61.0787 16.625 61.0051 17.0588C60.939 17.4926 60.9059 17.9559 60.9059 18.4485C60.9059 19.5735 61.1044 20.4191 61.5015 20.9852C61.8985 21.5515 62.4757 21.8346 63.2331 21.8346C63.586 21.8272 63.9059 21.761 64.1926 21.636C64.4867 21.5036 64.7405 21.3015 64.9537 21.0294C65.1669 20.7573 65.3324 20.4117 65.45 19.9926C65.5677 19.5735 65.6265 19.0662 65.6265 18.4706Z" fill="white"/>
<path d="M69.9707 18.4707C69.9707 17.6912 70.0957 16.9559 70.3457 16.2647C70.6031 15.5662 70.9854 14.9559 71.4928 14.4339C72.0075 13.9118 72.6471 13.4964 73.4118 13.1876C74.184 12.8787 75.0883 12.7243 76.1251 12.7243C77.1177 12.7243 77.9964 12.8676 78.7611 13.1544C79.5258 13.4412 80.1692 13.842 80.6913 14.3567C81.2133 14.864 81.6104 15.4706 81.8824 16.1764C82.1545 16.875 82.2905 17.6397 82.2905 18.4707C82.2905 19.2427 82.1619 19.9743 81.9045 20.6655C81.6471 21.3492 81.2611 21.9523 80.7464 22.4743C80.2317 22.989 79.5883 23.4007 78.8163 23.7096C78.0442 24.0111 77.1472 24.1618 76.1251 24.1618C75.1177 24.1618 74.228 24.0184 73.456 23.7316C72.6913 23.4375 72.0479 23.0368 71.5258 22.5294C71.0112 22.0148 70.6214 21.4118 70.3567 20.7206C70.0994 20.0221 69.9707 19.2721 69.9707 18.4707ZM73.6435 18.4707C73.6435 18.9559 73.6876 19.4192 73.7759 19.8603C73.8641 20.2941 74.0037 20.6765 74.195 21.0074C74.3935 21.3382 74.6508 21.603 74.967 21.8015C75.2832 21.9926 75.6692 22.0883 76.1251 22.0883C76.5442 22.0883 76.9082 22.0001 77.217 21.8235C77.5331 21.6471 77.7906 21.4007 77.989 21.0846C78.195 20.7684 78.3493 20.3897 78.4523 19.9486C78.5553 19.5 78.6067 19.0074 78.6067 18.4707C78.6067 17.9853 78.5589 17.5257 78.4633 17.0919C78.3751 16.6508 78.2317 16.2647 78.0332 15.9338C77.8347 15.5956 77.5773 15.3309 77.2611 15.1397C76.9523 14.9412 76.5736 14.842 76.1251 14.842C75.6766 14.842 75.2942 14.9375 74.978 15.1287C74.6619 15.3199 74.4045 15.5809 74.206 15.9118C74.0075 16.2427 73.8641 16.6287 73.7759 17.0699C73.6876 17.511 73.6435 17.978 73.6435 18.4707Z" fill="white"/>
<path d="M87.0203 9.00736C87.0203 9.25001 86.9652 9.46692 86.8549 9.6581C86.7446 9.84192 86.6012 9.99629 86.4248 10.1214C86.2483 10.2464 86.0424 10.3419 85.8071 10.4081C85.5792 10.4669 85.3439 10.4963 85.1012 10.4963C84.8439 10.4963 84.5976 10.4632 84.3623 10.397C84.1343 10.3309 83.9322 10.2353 83.7557 10.1103C83.5792 9.97794 83.4394 9.81986 83.3365 9.63604C83.2336 9.45221 83.1821 9.24265 83.1821 9.00736C83.1821 8.79412 83.2299 8.59927 83.3255 8.4228C83.4284 8.23898 83.5644 8.08089 83.7336 7.94853C83.9027 7.81619 84.105 7.71324 84.3403 7.63972C84.5755 7.56618 84.8329 7.52942 85.1123 7.52942C85.3549 7.52942 85.5902 7.56251 85.8182 7.62868C86.0535 7.69486 86.2593 7.79044 86.4358 7.91545C86.6122 8.04045 86.752 8.19486 86.8549 8.37868C86.9652 8.56251 87.0203 8.77206 87.0203 9.00736ZM86.8549 21.8566C86.8549 22.5552 86.7115 23.0919 86.4248 23.4669C86.1453 23.8419 85.6784 24.0294 85.024 24.0294C84.4064 24.0294 83.9689 23.8419 83.7115 23.4669C83.4616 23.0919 83.3365 22.5552 83.3365 21.8566V15.1066C83.3365 14.4081 83.4616 13.8713 83.7115 13.4963C83.9689 13.1214 84.4064 12.9338 85.024 12.9338C85.6784 12.9338 86.1453 13.1214 86.4248 13.4963C86.7115 13.8713 86.8549 14.4081 86.8549 15.1066V21.8566Z" fill="white"/>
<path d="M91.9264 18.4485C91.9264 18.9412 91.9631 19.4007 92.0367 19.8272C92.1175 20.2537 92.2499 20.6286 92.4337 20.9522C92.6249 21.2683 92.8749 21.5183 93.1837 21.7021C93.4998 21.886 93.8896 21.9779 94.3528 21.9779C94.7793 21.9779 95.1359 21.8897 95.423 21.7132C95.7166 21.5294 95.9519 21.2794 96.1288 20.9632C96.3048 20.6396 96.43 20.261 96.5034 19.8272C96.5844 19.3933 96.6248 18.9227 96.6248 18.4155C96.6248 18.011 96.5957 17.5993 96.5364 17.1802C96.478 16.7536 96.3679 16.3676 96.206 16.022C96.0441 15.6764 95.8201 15.3933 95.5331 15.1727C95.246 14.9522 94.8714 14.8419 94.408 14.8419C93.9447 14.8419 93.5513 14.9154 93.2278 15.0625C92.9116 15.2095 92.6543 15.4338 92.4558 15.7353C92.2645 16.0367 92.1286 16.4155 92.0477 16.8713C91.9668 17.3198 91.9264 17.8456 91.9264 18.4485ZM91.9154 15.1066C92.0992 14.7169 92.3345 14.375 92.6213 14.0809C92.9079 13.7867 93.2242 13.5404 93.5698 13.3419C93.9154 13.1434 94.2757 12.9963 94.6506 12.9007C95.0333 12.7978 95.4117 12.7463 95.7862 12.7463C96.463 12.7463 97.0738 12.8971 97.6178 13.1985C98.1618 13.5 98.6248 13.9117 99.007 14.4338C99.3966 14.9485 99.695 15.5588 99.9011 16.2647C100.106 16.9632 100.21 17.7132 100.21 18.5147C100.21 19.3455 100.099 20.1066 99.8785 20.7978C99.6658 21.489 99.3599 22.0845 98.9627 22.5845C98.5731 23.0772 98.1025 23.4632 97.551 23.7426C97.007 24.022 96.4008 24.1617 95.7317 24.1617C94.9081 24.1617 94.1727 23.9706 93.5256 23.5882C92.8786 23.2059 92.3418 22.6691 91.9154 21.9779V25.9485C91.9154 26.647 91.7719 27.1838 91.4852 27.5588C91.2057 27.9338 90.7389 28.1213 90.0844 28.1213C89.4668 28.1213 89.0293 27.9338 88.7719 27.5588C88.522 27.1838 88.397 26.647 88.397 25.9485V15.1066C88.397 14.408 88.522 13.8713 88.7719 13.4963C89.0293 13.1213 89.4668 12.9338 90.0844 12.9338C90.7389 12.9338 91.2057 13.1213 91.4852 13.4963C91.7719 13.8713 91.9154 14.408 91.9154 15.1066Z" fill="white"/>
<path d="M104.091 15.8898C104.091 16.1764 104.216 16.4007 104.465 16.5625C104.716 16.717 105.061 16.8456 105.502 16.9486C105.921 17.0441 106.351 17.1361 106.793 17.2243C107.234 17.3125 107.664 17.4155 108.083 17.5332C108.502 17.6434 108.895 17.7758 109.263 17.9301C109.63 18.0846 109.954 18.2794 110.234 18.5147C110.513 18.7427 110.733 19.0221 110.895 19.3529C111.057 19.6765 111.138 20.0662 111.138 20.522C111.138 21.0956 111.02 21.6067 110.785 22.0551C110.55 22.4964 110.216 22.8713 109.782 23.1802C109.356 23.489 108.844 23.728 108.249 23.8971C107.653 24.0662 106.995 24.1544 106.274 24.1618C105.591 24.1618 104.932 24.1177 104.3 24.0294C103.668 23.9486 103.105 23.8198 102.612 23.6434C102.127 23.4669 101.738 23.25 101.443 22.9926C101.149 22.728 101.003 22.4192 101.003 22.0662C101.003 21.7573 101.101 21.5184 101.3 21.3492C101.499 21.1802 101.752 21.0956 102.061 21.0956C102.179 21.0956 102.318 21.1176 102.48 21.1618C102.642 21.2059 102.818 21.2611 103.009 21.3272C103.2 21.3934 103.403 21.4669 103.616 21.5478C103.836 21.6213 104.064 21.6875 104.3 21.7463C104.594 21.8273 104.895 21.8934 105.204 21.9449C105.52 21.989 105.844 22.0111 106.175 22.0111C106.38 22.0111 106.583 21.9926 106.781 21.9559C106.98 21.9118 107.157 21.8493 107.311 21.7684C107.473 21.6802 107.605 21.5699 107.708 21.4375C107.811 21.3052 107.873 21.1434 107.896 20.9523C107.917 20.9081 107.936 20.864 107.95 20.8198C107.965 20.7758 107.973 20.7243 107.973 20.6655C107.973 20.4596 107.877 20.2757 107.686 20.114C107.502 19.9523 107.241 19.8235 106.903 19.728C106.336 19.5956 105.796 19.4743 105.281 19.364C104.767 19.2537 104.289 19.1361 103.848 19.0111C103.414 18.8861 103.017 18.7427 102.656 18.5809C102.303 18.4192 102.002 18.2206 101.752 17.9853C101.51 17.75 101.318 17.4669 101.179 17.1361C101.046 16.8052 100.98 16.4044 100.98 15.9338C100.98 15.4265 101.094 14.9743 101.322 14.5772C101.557 14.1728 101.892 13.8346 102.326 13.5625C102.76 13.2904 103.285 13.0846 103.903 12.9449C104.521 12.7978 105.219 12.7243 105.998 12.7243C107.395 12.7243 108.458 12.8934 109.186 13.2316C109.921 13.5625 110.289 13.9963 110.289 14.5332C110.289 14.8346 110.189 15.0662 109.991 15.2279C109.792 15.3824 109.553 15.4596 109.275 15.4596C109.127 15.4596 108.972 15.4339 108.811 15.3824C108.656 15.3236 108.469 15.2611 108.249 15.1949C108.028 15.1214 107.763 15.0589 107.454 15.0074C107.153 14.9486 106.778 14.9191 106.33 14.9191C105.991 14.9191 105.682 14.9338 105.403 14.9633C105.131 14.9926 104.895 15.0441 104.697 15.1176C104.506 15.1912 104.355 15.2904 104.245 15.4155C104.141 15.5405 104.091 15.6985 104.091 15.8898Z" fill="white"/>
<path d="M115.614 19.9374C115.614 20.283 115.659 20.5845 115.747 20.8419C115.842 21.0992 115.971 21.3162 116.133 21.4926C116.295 21.6618 116.482 21.7904 116.695 21.8786C116.916 21.9596 117.151 22 117.401 22C117.695 22 117.979 21.9559 118.251 21.8676C118.523 21.7794 118.762 21.6433 118.968 21.4595C119.18 21.2757 119.35 21.0441 119.475 20.7646C119.599 20.4853 119.662 20.1581 119.662 19.7831V15.1066C119.662 14.408 119.787 13.8713 120.037 13.4963C120.295 13.1214 120.732 12.9338 121.35 12.9338C122.004 12.9338 122.471 13.1214 122.75 13.4963C123.037 13.8713 123.18 14.408 123.18 15.1066V21.8566C123.18 22.5551 123.037 23.0919 122.75 23.4669C122.471 23.8419 122.004 24.0294 121.35 24.0294C120.732 24.0294 120.295 23.8419 120.037 23.4669C119.787 23.0919 119.662 22.5551 119.662 21.8566C119.508 22.1949 119.306 22.5037 119.055 22.7831C118.812 23.0625 118.526 23.3052 118.195 23.511C117.871 23.7096 117.512 23.8639 117.115 23.9742C116.725 24.0846 116.301 24.1397 115.846 24.1397C115.354 24.1397 114.879 24.0551 114.423 23.8861C113.975 23.7096 113.578 23.4522 113.232 23.1139C112.887 22.7684 112.611 22.3419 112.405 21.8346C112.199 21.3272 112.096 20.7353 112.096 20.0588V15.1066C112.096 14.408 112.221 13.8713 112.471 13.4963C112.729 13.1214 113.165 12.9338 113.784 12.9338C114.438 12.9338 114.905 13.1214 115.184 13.4963C115.471 13.8713 115.614 14.408 115.614 15.1066V19.9374Z" fill="white"/>
<path d="M124.777 15.1066C124.777 14.408 124.903 13.8713 125.153 13.4963C125.41 13.1213 125.847 12.9338 126.465 12.9338C127.12 12.9338 127.587 13.1213 127.866 13.4963C128.152 13.8713 128.296 14.408 128.296 15.1066C128.443 14.7536 128.642 14.4338 128.892 14.147C129.149 13.8529 129.44 13.6029 129.763 13.397C130.094 13.1912 130.451 13.0331 130.833 12.9227C131.215 12.8051 131.612 12.7463 132.024 12.7463C132.407 12.7463 132.781 12.7978 133.149 12.9007C133.524 12.9963 133.87 13.1544 134.186 13.375C134.509 13.5882 134.792 13.8603 135.035 14.1912C135.278 14.522 135.465 14.9191 135.598 15.3823C135.826 14.8897 136.094 14.4743 136.403 14.136C136.711 13.7978 137.047 13.5257 137.406 13.3198C137.767 13.1139 138.142 12.9669 138.532 12.8786C138.929 12.7904 139.325 12.7463 139.722 12.7463C140.193 12.7463 140.642 12.8309 141.068 12.9999C141.502 13.1691 141.88 13.4265 142.204 13.7721C142.535 14.1102 142.796 14.5404 142.987 15.0625C143.186 15.5771 143.285 16.1802 143.285 16.8713V21.8566C143.285 22.5551 143.142 23.0919 142.855 23.4668C142.576 23.8419 142.108 24.0294 141.454 24.0294C140.837 24.0294 140.399 23.8419 140.142 23.4668C139.892 23.0919 139.767 22.5551 139.767 21.8566V17.0257C139.767 16.6948 139.722 16.4007 139.635 16.1434C139.546 15.8786 139.421 15.6581 139.259 15.4816C139.105 15.2978 138.921 15.1617 138.708 15.0735C138.495 14.9779 138.266 14.9301 138.024 14.9301C137.722 14.9301 137.436 14.9779 137.164 15.0735C136.892 15.1691 136.653 15.3162 136.447 15.5147C136.248 15.7132 136.087 15.9669 135.961 16.2757C135.844 16.5845 135.785 16.9559 135.785 17.3897V21.8566C135.785 22.5551 135.641 23.0919 135.355 23.4668C135.076 23.8419 134.609 24.0294 133.954 24.0294C133.336 24.0294 132.899 23.8419 132.642 23.4668C132.391 23.0919 132.266 22.5551 132.266 21.8566V17.2352C132.266 16.4779 132.108 15.9044 131.793 15.5147C131.483 15.125 131.061 14.9301 130.524 14.9301C130.208 14.9301 129.913 14.9816 129.641 15.0845C129.369 15.1875 129.134 15.3382 128.935 15.5368C128.737 15.7353 128.579 15.9816 128.461 16.2757C128.351 16.5698 128.296 16.9081 128.296 17.2904V21.8566C128.296 22.5551 128.152 23.0919 127.866 23.4668C127.587 23.8419 127.12 24.0294 126.465 24.0294C125.847 24.0294 125.41 23.8419 125.153 23.4668C124.903 23.0919 124.777 22.5551 124.777 21.8566V15.1066Z" fill="white"/>
<path d="M16.7296 22.1471C13.6108 22.1471 11.0825 19.6188 11.0825 16.5C11.0825 13.3812 13.6108 10.853 16.7296 10.853C19.8484 10.853 22.3766 13.3812 22.3766 16.5C22.3766 19.6188 19.8484 22.1471 16.7296 22.1471Z" fill="white"/>
<path d="M5.78947 18.429C4.153 18.7176 3.03129 20.2984 3.65948 21.8368C4.5365 23.9846 5.93568 25.8982 7.74962 27.3935C10.3434 29.5316 13.615 30.6741 16.9759 30.6155C20.3368 30.5568 23.5666 29.3008 26.0842 27.0734C27.8448 25.5158 29.1764 23.5545 29.978 21.3774C30.5521 19.818 29.3758 18.2773 27.7302 18.0461C26.0848 17.8148 24.6073 19.0126 23.7945 20.462C23.354 21.2476 22.782 21.9603 22.0968 22.5665C20.6523 23.8446 18.7992 24.5651 16.8709 24.5988C14.9426 24.6324 13.0655 23.977 11.5773 22.7502C10.8713 22.1682 10.2749 21.4759 9.80716 20.7061C8.94429 19.286 7.42594 18.1405 5.78947 18.429Z" fill="white"/>
<path d="M30.7379 18.2642C30.81 17.6862 30.8471 17.0974 30.8471 16.5C30.8471 8.70301 24.5265 2.38232 16.7295 2.38232C8.9325 2.38232 2.61182 8.70301 2.61182 16.5C2.61182 17.2667 2.67295 18.0192 2.7906 18.7529C3.43905 17.8651 4.45112 17.2315 5.5443 17.0387C6.72706 16.8301 7.80201 17.117 8.71089 17.6532C8.6572 17.2765 8.62942 16.8915 8.62942 16.5C8.62942 12.0265 12.256 8.39992 16.7295 8.39992C21.203 8.39992 24.8295 12.0265 24.8295 16.5C24.8295 16.7949 24.8137 17.0862 24.783 17.373C25.6727 16.8052 26.7372 16.4808 27.9267 16.648C29.0257 16.8025 30.0589 17.4001 30.7379 18.2642Z" fill="white"/>
</svg>
