<svg width="139" height="33" viewBox="0 0 139 33" fill="none" xmlns="http://www.w3.org/2000/svg">
<g clip-path="url(#clip0_6_441)">
<path d="M39.8994 23.7H48.9816V21.1138H42.6689V9.03815H39.8994V23.7Z" fill="white"/>
<path d="M54.4397 24.0054C55.5393 24.0054 56.5066 23.761 57.3415 23.2723C58.1832 22.7768 58.8382 22.0946 59.3066 21.2258C59.7817 20.3501 60.0193 19.3421 60.0193 18.2018C60.0193 17.0682 59.7851 16.067 59.3168 15.1981C58.8484 14.3225 58.1933 13.6369 57.3517 13.1414C56.5168 12.6459 55.5461 12.3981 54.4397 12.3981C53.3536 12.3981 52.3931 12.6425 51.5582 13.1313C50.7233 13.62 50.0683 14.3021 49.5931 15.1778C49.118 16.0466 48.8804 17.0546 48.8804 18.2018C48.8804 19.3353 49.1112 20.34 49.5728 21.2156C50.0411 22.0845 50.6928 22.7666 51.5277 23.2621C52.3626 23.7577 53.3333 24.0054 54.4397 24.0054ZM54.4397 21.4193C53.5776 21.4193 52.9226 21.1308 52.4746 20.5538C52.0333 19.9701 51.8128 19.1861 51.8128 18.2018C51.8128 17.2447 52.0232 16.4709 52.444 15.8803C52.8716 15.283 53.5369 14.9843 54.4397 14.9843C55.3153 14.9843 55.9737 15.2762 56.4149 15.86C56.8629 16.4437 57.0869 17.2243 57.0869 18.2018C57.0869 19.1453 56.8664 19.9191 56.4251 20.5233C55.9907 21.1205 55.3289 21.4193 54.4397 21.4193Z" fill="white"/>
<path d="M65.4958 24.0054C66.0117 24.0054 66.4868 23.9443 66.9213 23.8221C67.3625 23.7 67.763 23.5269 68.1227 23.3029V24.4127C68.1363 24.82 68.0311 25.1593 67.8071 25.4309C67.5899 25.7092 67.298 25.9162 66.9315 26.052C66.5649 26.1945 66.1746 26.2658 65.7606 26.2658C65.3736 26.2658 65.0139 26.1809 64.6813 26.0113C64.3555 25.8416 64.1043 25.5938 63.9278 25.268L61.362 26.5101C61.7828 27.2229 62.3835 27.7965 63.1642 28.2309C63.9448 28.6721 64.8035 28.8927 65.7402 28.8927C66.5479 28.8927 67.298 28.784 67.9903 28.5669C68.6827 28.3565 69.2665 28.0341 69.7416 27.5996C70.2235 27.1652 70.5528 26.612 70.7293 25.94C70.7903 25.7024 70.8311 25.4614 70.8515 25.217C70.8786 24.9795 70.8922 24.7249 70.8922 24.4534V12.7036H68.4689V13.3145C68.0955 13.0226 67.6713 12.7986 67.1962 12.6425C66.7278 12.4796 66.2086 12.3981 65.6383 12.3981C64.5863 12.3981 63.6699 12.6493 62.8893 13.1516C62.1087 13.6539 61.5011 14.3429 61.0667 15.2185C60.639 16.0873 60.4253 17.0818 60.4253 18.2018C60.4253 19.3014 60.6357 20.289 61.0566 21.1647C61.4842 22.0403 62.0781 22.7327 62.8383 23.2418C63.5986 23.7509 64.4844 24.0054 65.4958 24.0054ZM65.9438 21.5414C65.3465 21.5414 64.8578 21.3921 64.4776 21.0934C64.0975 20.7948 63.8158 20.3943 63.6326 19.892C63.4493 19.3829 63.3576 18.8195 63.3576 18.2018C63.3576 17.5909 63.4527 17.0343 63.6427 16.532C63.8328 16.0229 64.1246 15.619 64.5183 15.3203C64.9188 15.0149 65.4279 14.8621 66.0456 14.8621C66.9145 14.8621 67.5355 15.171 67.9089 15.7887C68.2823 16.3996 68.4689 17.204 68.4689 18.2018C68.4689 19.1996 68.2788 20.0073 67.8987 20.625C67.5254 21.236 66.8738 21.5414 65.9438 21.5414Z" fill="white"/>
<path d="M77.4704 24.0054C78.5701 24.0054 79.5374 23.761 80.3723 23.2723C81.2138 22.7768 81.869 22.0946 82.337 21.2258C82.8122 20.3501 83.0498 19.3421 83.0498 18.2018C83.0498 17.0682 82.8162 16.067 82.3474 15.1981C81.8794 14.3225 81.2242 13.6369 80.3824 13.1414C79.5475 12.6459 78.5768 12.3981 77.4704 12.3981C76.3843 12.3981 75.4239 12.6425 74.589 13.1313C73.7541 13.62 73.0991 14.3021 72.6239 15.1778C72.1487 16.0466 71.9111 17.0546 71.9111 18.2018C71.9111 19.3353 72.1419 20.34 72.6035 21.2156C73.0719 22.0845 73.7235 22.7666 74.5584 23.2621C75.3934 23.7577 76.364 24.0054 77.4704 24.0054ZM77.4704 21.4193C76.6083 21.4193 75.9533 21.1308 75.5053 20.5538C75.0641 19.9701 74.8435 19.1861 74.8435 18.2018C74.8435 17.2447 75.0539 16.4709 75.4748 15.8803C75.9024 15.283 76.5676 14.9843 77.4704 14.9843C78.3461 14.9843 79.0045 15.2762 79.4457 15.86C79.8937 16.4437 80.1177 17.2243 80.1177 18.2018C80.1177 19.1453 79.8971 19.9191 79.4559 20.5233C79.0215 21.1205 78.3596 21.4193 77.4704 21.4193Z" fill="white"/>
<path d="M84.2705 11.1763H87.0401V8.73273H84.2705V11.1763ZM84.2705 23.7H87.0401V12.7036H84.2705V23.7Z" fill="white"/>
<path d="M88.8506 28.5873H91.6402V23.3029C92.0002 23.5269 92.397 23.7 92.8314 23.8221C93.273 23.9443 93.7514 24.0054 94.2674 24.0054C95.2786 24.0054 96.165 23.7509 96.925 23.2418C97.685 22.7327 98.2754 22.0403 98.6962 21.1647C99.1242 20.289 99.3378 19.3014 99.3378 18.2018C99.3378 17.0818 99.121 16.0873 98.6866 15.2185C98.2586 14.3429 97.6546 13.6539 96.8738 13.1516C96.093 12.6493 95.177 12.3981 94.125 12.3981C93.5546 12.3981 93.0322 12.4796 92.557 12.6425C92.0882 12.7986 91.6674 13.0226 91.2946 13.3145V12.7036H88.8506V28.5873ZM93.8194 21.5414C92.8962 21.5414 92.245 21.236 91.8642 20.625C91.4842 20.0073 91.2946 19.1996 91.2946 18.2018C91.2946 17.204 91.481 16.3996 91.8546 15.7887C92.2346 15.171 92.8554 14.8621 93.7178 14.8621C94.3354 14.8621 94.841 15.0149 95.2346 15.3203C95.6354 15.619 95.9306 16.0229 96.1202 16.532C96.3106 17.0343 96.4058 17.5909 96.4058 18.2018C96.4058 18.8195 96.3138 19.3829 96.1306 19.892C95.9474 20.3943 95.6658 20.7948 95.2858 21.0934C94.9058 21.3921 94.417 21.5414 93.8194 21.5414Z" fill="white"/>
<path d="M104.355 24.0054C105.794 24.0054 106.921 23.683 107.735 23.0381C108.55 22.3933 108.957 21.5075 108.957 20.3807C108.957 19.5254 108.692 18.8501 108.163 18.3545C107.64 17.859 106.751 17.4483 105.495 17.1225C104.64 16.9053 104.002 16.7288 103.581 16.593C103.167 16.4573 102.892 16.3249 102.756 16.196C102.627 16.067 102.563 15.9075 102.563 15.7174C102.563 15.3984 102.715 15.1541 103.021 14.9843C103.334 14.8146 103.744 14.7468 104.253 14.7807C105.332 14.8621 105.923 15.3237 106.025 16.1654L108.855 15.6563C108.713 14.6585 108.224 13.8677 107.389 13.284C106.554 12.6934 105.489 12.3981 104.192 12.3981C102.862 12.3981 101.799 12.7104 101.005 13.3349C100.211 13.9593 99.8137 14.801 99.8137 15.86C99.8137 16.7017 100.089 17.3669 100.638 17.8556C101.188 18.3376 102.135 18.7516 103.479 19.0978C104.274 19.3082 104.857 19.4779 105.23 19.6069C105.61 19.7358 105.855 19.8682 105.963 20.004C106.072 20.1329 106.126 20.3061 106.126 20.5233C106.126 20.8694 105.99 21.1409 105.719 21.3378C105.448 21.5278 105.061 21.6229 104.558 21.6229C103.947 21.6229 103.442 21.4769 103.042 21.185C102.648 20.8932 102.393 20.4893 102.278 19.9734L99.4473 20.401C99.6305 21.5482 100.146 22.4374 100.995 23.0687C101.85 23.6932 102.97 24.0054 104.355 24.0054Z" fill="white"/>
<path d="M114.066 24.0259C114.86 24.0259 115.552 23.8935 116.143 23.6287C116.734 23.364 117.229 23.0111 117.63 22.5699V23.7H120.073V12.7036H117.283V18.2833C117.283 18.9621 117.205 19.5119 117.049 19.9327C116.9 20.3468 116.707 20.6624 116.469 20.8796C116.231 21.0901 115.977 21.2326 115.705 21.3073C115.434 21.3819 115.179 21.4193 114.942 21.4193C114.351 21.4193 113.893 21.2869 113.567 21.0222C113.248 20.7575 113.017 20.4283 112.875 20.0346C112.732 19.6408 112.647 19.2506 112.62 18.8636C112.593 18.4699 112.579 18.1475 112.579 17.8963V12.7036H109.769V18.8739C109.769 19.0571 109.783 19.349 109.81 19.7495C109.837 20.1499 109.915 20.5946 110.044 21.0833C110.173 21.5652 110.387 22.0302 110.686 22.4782C110.991 22.9262 111.415 23.2961 111.959 23.588C112.501 23.8799 113.204 24.0259 114.066 24.0259Z" fill="white"/>
<path d="M121.677 23.7H124.466V17.0411C124.466 16.4099 124.639 15.8974 124.986 15.5036C125.338 15.1031 125.803 14.9029 126.381 14.9029C126.985 14.9029 127.457 15.1066 127.796 15.5139C128.142 15.9143 128.315 16.4777 128.315 17.204V23.7H131.085V17.0411C131.085 16.4099 131.258 15.8974 131.604 15.5036C131.957 15.1031 132.422 14.9029 132.998 14.9029C133.603 14.9029 134.074 15.1066 134.414 15.5139C134.76 15.9143 134.934 16.4777 134.934 17.204V23.7H137.702V16.4709C137.702 15.2695 137.38 14.2988 136.735 13.5589C136.098 12.8123 135.15 12.4389 133.894 12.4389C133.189 12.4389 132.541 12.5916 131.95 12.8971C131.359 13.2026 130.888 13.62 130.534 14.1495C130.25 13.6336 129.842 13.2195 129.313 12.9073C128.783 12.5951 128.125 12.4389 127.338 12.4389C126.672 12.4389 126.062 12.5713 125.505 12.836C124.948 13.0939 124.486 13.4503 124.12 13.9051V12.7036H121.677V23.7Z" fill="white"/>
<path d="M16.6704 0.5C7.83385 0.5 0.67041 7.66344 0.67041 16.5C9.50697 16.5 16.6704 9.33656 16.6704 0.5Z" fill="white"/>
<path d="M16.6704 32.5C25.507 32.5 32.6704 25.3366 32.6704 16.5C23.8339 16.5 16.6704 23.6634 16.6704 32.5Z" fill="white"/>
<path d="M16.6704 0.5C25.507 0.5 32.6704 7.66344 32.6704 16.5C23.8339 16.5 16.6704 9.33656 16.6704 0.5Z" fill="white"/>
<path d="M16.6704 32.5C7.83385 32.5 0.670409 25.3366 0.67041 16.5C9.50697 16.5 16.6704 23.6634 16.6704 32.5Z" fill="white"/>
</g>
<defs>
<clipPath id="clip0_6_441">
<rect width="137.6" height="32" fill="white" transform="translate(0.67041 0.5)"/>
</clipPath>
</defs>
</svg>
