<svg width="150" height="15" viewBox="0 0 150 15" fill="none" xmlns="http://www.w3.org/2000/svg">
<path d="M74.4225 14.374H69.3025V0.685986H74.4225V14.374ZM69.8025 13.874H73.9225V1.18599H69.8025V13.874ZM81.5465 14.374H76.5295V0.685986H87.0115C88.5131 0.564386 90.0085 0.985956 91.2255 1.87399C91.7494 2.3533 92.1555 2.94718 92.412 3.60928C92.6686 4.27139 92.7687 4.98382 92.7045 5.69099C92.7793 6.91296 92.3904 8.11819 91.6155 9.06599C90.6985 10.118 89.1725 10.66 87.0805 10.679C86.5535 10.693 82.6045 10.679 81.5495 10.679L81.5465 14.374ZM77.0265 13.874H81.0465V10.174H81.2975C81.3485 10.174 86.4755 10.19 87.0685 10.174C89.0175 10.157 90.4185 9.67399 91.2375 8.73099C91.9273 7.87344 92.2699 6.78814 92.1975 5.68999C92.259 5.05636 92.1737 4.41708 91.9483 3.82173C91.7228 3.22638 91.3633 2.69096 90.8975 2.25699C89.7691 1.44709 88.3885 1.06692 87.0045 1.18499H77.0295L77.0265 13.874ZM85.9495 7.60399H81.0125V3.87799H85.9825C86.3348 3.82931 86.6937 3.87043 87.0258 3.99752C87.358 4.12462 87.6527 4.33357 87.8825 4.60499C88.091 4.95193 88.1893 5.35397 88.1645 5.75799C88.1832 6.13309 88.1022 6.50646 87.9295 6.83999C87.6924 7.12587 87.3857 7.34594 87.0389 7.47904C86.6922 7.61214 86.317 7.65379 85.9495 7.59999V7.60399ZM81.5125 7.10399H85.9495C86.7695 7.10399 87.2775 6.93299 87.5025 6.58099C87.6264 6.32514 87.6825 6.04175 87.6655 5.75799C87.6874 5.46005 87.6228 5.16213 87.4795 4.89999L87.4735 4.89099C87.2355 4.54099 86.7625 4.37799 85.9825 4.37799H81.5125V7.10399ZM101.829 14.576C97.3395 14.576 94.6595 13.461 93.6385 11.168C93.4714 10.7251 93.358 10.2638 93.3005 9.79399L93.2565 9.50599H98.5985L98.6335 9.71599C98.6746 9.92918 98.7655 10.1299 98.8975 10.302C99.1085 10.557 99.8125 10.985 102.148 10.985C104.956 10.985 104.956 10.492 104.956 10.227C104.956 9.77999 104.631 9.62699 102.341 9.38299L101.906 9.34199C101.044 9.26099 99.9545 9.15799 99.4565 9.11499C95.2565 8.73499 93.3815 7.42999 93.3815 4.88499C93.3815 2.21199 96.5725 0.484985 101.511 0.484985C105.54 0.484985 108.136 1.54699 109.225 3.64399C109.483 4.13177 109.657 4.65998 109.738 5.20599L109.773 5.48699H104.425L104.403 5.26099C104.382 5.08437 104.307 4.91868 104.187 4.78699C103.987 4.51899 103.355 4.07599 101.393 4.07599C98.9845 4.07599 98.6525 4.38399 98.6525 4.71599C98.6525 5.15899 99.4135 5.31599 101.852 5.57699C102.869 5.65999 104.504 5.82799 105.064 5.89599C108.585 6.27799 110.156 7.55099 110.156 10.025C110.157 12.1 108.712 14.576 101.829 14.576ZM93.8405 10.006C93.8906 10.3358 93.9768 10.659 94.0975 10.97C95.0275 13.059 97.5575 14.076 101.829 14.076C105.401 14.076 109.66 13.376 109.66 10.025C109.66 7.83199 108.27 6.74599 105.011 6.39299C104.451 6.32499 102.826 6.15799 101.811 6.07399C99.2115 5.79199 98.1545 5.64199 98.1545 4.71599C98.1545 3.75799 99.2935 3.57599 101.395 3.57599C103.056 3.57599 104.129 3.87599 104.584 4.48099C104.708 4.63004 104.802 4.80194 104.86 4.98699H109.194C109.107 4.60023 108.969 4.22668 108.784 3.87599C107.784 1.95699 105.341 0.984985 101.513 0.984985C96.8785 0.984985 93.8835 2.51599 93.8835 4.88499C93.8835 7.14499 95.5645 8.26099 99.5025 8.61699C100.002 8.65999 101.091 8.76299 101.955 8.84499L102.393 8.88599C104.52 9.10999 105.458 9.24999 105.458 10.227C105.458 11.279 104.245 11.485 102.15 11.485C100.212 11.485 98.9885 11.194 98.5155 10.621C98.3697 10.4383 98.2597 10.2296 98.1915 10.006H93.8405ZM119.656 14.559C114.436 14.559 111.556 12.448 111.556 8.61399V0.685986H116.608V8.61399C116.608 9.92899 117.785 10.683 119.836 10.683C121.796 10.683 123.013 9.89599 123.013 8.63099V0.685986H128.013V9.03399C128.018 12.545 124.969 14.559 119.653 14.559H119.656ZM112.056 1.18599V8.61399C112.056 13.352 116.814 14.059 119.656 14.059C122.594 14.059 127.521 13.406 127.521 9.03399V1.18599H123.521V8.63099C123.521 10.181 122.077 11.183 119.844 11.183C117.51 11.183 116.116 10.223 116.116 8.61399V1.18599H112.056ZM149.201 14.374H144.433V8.19399L141.729 14.374H137.57L134.894 8.20599V14.374H130.109V0.685986H136.403L139.673 8.23299L143.101 0.685986H149.207L149.201 14.374ZM144.933 13.874H148.701V1.18599H143.419L139.657 9.46499L136.071 1.18599H130.605V13.874H134.39V5.79999L137.89 13.877H141.39L144.927 5.81199L144.933 13.874ZM4.78349 0.935986H0.229492V14.124H12.8135V10.613H4.78349V0.935986ZM22.0055 0.635985C16.1925 0.635985 13.1355 3.39099 13.1355 7.43599C13.1355 12.006 16.3445 14.324 22.0055 14.324C28.2375 14.324 30.8585 11.636 30.8585 7.43599C30.8585 3.17099 27.9015 0.633986 22.0055 0.633986V0.635985ZM21.9885 4.06299C22.3842 4.06113 22.7797 4.08417 23.1725 4.13199L18.0815 9.22299C17.8406 8.67809 17.7231 8.08659 17.7375 7.49099C17.7375 5.42199 18.7795 4.06099 21.9885 4.06099V4.06299ZM22.0055 10.951C21.6242 10.9527 21.2432 10.9313 20.8645 10.887L25.9645 5.78699C26.1964 6.32289 26.3074 6.90332 26.2895 7.48699C26.2895 9.49999 25.3295 10.949 22.0055 10.949V10.951ZM39.8815 9.15099H44.5685C44.4995 9.47629 44.3557 9.78099 44.1485 10.041C43.1768 10.8326 41.9367 11.2178 40.6875 11.116C40.0587 11.1833 39.4229 11.1146 38.823 10.9146C38.2231 10.7147 37.6731 10.3881 37.2105 9.95699C36.7366 9.26189 36.5115 8.42709 36.5715 7.58799C36.4948 6.70873 36.7396 5.83151 37.2605 5.11899C37.9155 4.37899 39.0245 4.05999 40.6545 4.05999C41.6916 3.97412 42.7274 4.24047 43.5945 4.81599C43.8678 5.03307 44.0721 5.3249 44.1825 5.65599H48.5295C48.4979 5.11046 48.3667 4.57532 48.1425 4.07699C47.1015 1.95999 44.6815 0.699986 40.5665 0.699986C36.9875 0.699986 34.5855 1.79199 33.2585 3.43899C32.3821 4.62835 31.9322 6.07843 31.9815 7.55499C31.9248 9.06499 32.3631 10.5521 33.2295 11.79C34.5405 13.49 36.8755 14.326 39.6815 14.326C41.547 14.4561 43.3998 13.9336 44.9225 12.848L45.0405 14.124H48.6515V6.31199H39.8815V9.15099ZM58.9005 0.632985C53.0885 0.632985 50.0305 3.38799 50.0305 7.43299C50.0305 12.003 53.2385 14.321 58.9005 14.321C65.1335 14.321 67.7545 11.633 67.7545 7.43299C67.7545 3.17099 64.7975 0.633986 58.9005 0.633986V0.632985ZM58.8845 4.05999C59.2698 4.05885 59.6548 4.08089 60.0375 4.12599L54.9665 9.19999C54.7331 8.66109 54.6195 8.07809 54.6335 7.49099C54.6295 5.42199 55.6755 4.05999 58.8845 4.05999ZM58.9005 10.948C58.5091 10.9497 58.118 10.9269 57.7295 10.88L62.8465 5.76199C63.0872 6.30502 63.2024 6.89531 63.1835 7.48899C63.1855 9.49999 62.2295 10.949 58.9005 10.949V10.948Z" fill="white"/>
</svg>
